<svg xmlns="http://www.w3.org/2000/svg" width="1024" height="1024" viewBox="0 0 32 32">
    <defs>
        <style>.a{fill:#e95463;}.b{fill:#f8f8f8;font-size:12px;font-family:ArialMT, Arial;}</style>
    </defs>
    <path class="a" d="M6,12H26a1.333,1.333,0,0,1,1.333,1.333V24.667A1.333,1.333,0,0,1,26,26H6v3.333A.667.667,0,0,0,6.667,30H29.333A.667.667,0,0,0,30,29.333V9.651l-.315-.317H25.731a3.064,3.064,0,0,1-3.064-3.064v-4L22.4,2H6.667A.667.667,0,0,0,6,2.667V12ZM4,26H1.333A1.333,1.333,0,0,1,0,24.667V13.333A1.333,1.333,0,0,1,1.333,12H4V2.667A2.667,2.667,0,0,1,6.667,0H23.23L32,8.827V29.333A2.667,2.667,0,0,1,29.333,32H6.667A2.667,2.667,0,0,1,4,29.333V26Z" transform="translate(0 0)"/>
    <text class="b" transform="translate(14 23)">
        <tspan x="-12" y="0">PDF</tspan>
    </text>
</svg>